<svg width="108" height="47" viewBox="0 0 108 47" fill="none" xmlns="http://www.w3.org/2000/svg">
<path d="M13 19L22 12L31 19V30C31 30.5304 30.7893 31.0391 30.4142 31.4142C30.0391 31.7893 29.5304 32 29 32H15C14.4696 32 13.9609 31.7893 13.5858 31.4142C13.2107 31.0391 13 30.5304 13 30V19Z" stroke="#EEEEEE" stroke-width="2" stroke-linecap="round" stroke-linejoin="round"/>
<path d="M19 32V22H25V32" stroke="#EEEEEE" stroke-width="2" stroke-linecap="round" stroke-linejoin="round"/>
<path d="M55.052 17.454V30H53.414V24.312H47.024V30H45.386V17.454H47.024V22.962H53.414V17.454H55.052ZM62.1509 30.162C61.2269 30.162 60.3869 29.952 59.6309 29.532C58.8869 29.112 58.2989 28.518 57.8669 27.75C57.4469 26.97 57.2369 26.07 57.2369 25.05C57.2369 24.042 57.4529 23.154 57.8849 22.386C58.3289 21.606 58.9289 21.012 59.6849 20.604C60.4409 20.184 61.2869 19.974 62.2229 19.974C63.1589 19.974 64.0049 20.184 64.7609 20.604C65.5169 21.012 66.1109 21.6 66.5429 22.368C66.9869 23.136 67.2089 24.03 67.2089 25.05C67.2089 26.07 66.9809 26.97 66.5249 27.75C66.0809 28.518 65.4749 29.112 64.7069 29.532C63.9389 29.952 63.0869 30.162 62.1509 30.162ZM62.1509 28.722C62.7389 28.722 63.2909 28.584 63.8069 28.308C64.3229 28.032 64.7369 27.618 65.0489 27.066C65.3729 26.514 65.5349 25.842 65.5349 25.05C65.5349 24.258 65.3789 23.586 65.0669 23.034C64.7549 22.482 64.3469 22.074 63.8429 21.81C63.3389 21.534 62.7929 21.396 62.2049 21.396C61.6049 21.396 61.0529 21.534 60.5489 21.81C60.0569 22.074 59.6609 22.482 59.3609 23.034C59.0609 23.586 58.9109 24.258 58.9109 25.05C58.9109 25.854 59.0549 26.532 59.3429 27.084C59.6429 27.636 60.0389 28.05 60.5309 28.326C61.0229 28.59 61.5629 28.722 62.1509 28.722ZM81.2246 19.956C81.9926 19.956 82.6766 20.118 83.2766 20.442C83.8766 20.754 84.3506 21.228 84.6986 21.864C85.0466 22.5 85.2206 23.274 85.2206 24.186V30H83.6006V24.42C83.6006 23.436 83.3546 22.686 82.8626 22.17C82.3826 21.642 81.7286 21.378 80.9006 21.378C80.0486 21.378 79.3706 21.654 78.8666 22.206C78.3626 22.746 78.1106 23.532 78.1106 24.564V30H76.4906V24.42C76.4906 23.436 76.2446 22.686 75.7526 22.17C75.2726 21.642 74.6186 21.378 73.7906 21.378C72.9386 21.378 72.2606 21.654 71.7566 22.206C71.2526 22.746 71.0006 23.532 71.0006 24.564V30H69.3626V20.136H71.0006V21.558C71.3246 21.042 71.7566 20.646 72.2966 20.37C72.8486 20.094 73.4546 19.956 74.1146 19.956C74.9426 19.956 75.6746 20.142 76.3106 20.514C76.9466 20.886 77.4206 21.432 77.7326 22.152C78.0086 21.456 78.4646 20.916 79.1006 20.532C79.7366 20.148 80.4446 19.956 81.2246 19.956ZM96.9075 24.69C96.9075 25.002 96.8895 25.332 96.8535 25.68H88.9695C89.0295 26.652 89.3595 27.414 89.9595 27.966C90.5715 28.506 91.3095 28.776 92.1735 28.776C92.8815 28.776 93.4695 28.614 93.9375 28.29C94.4175 27.954 94.7535 27.51 94.9455 26.958H96.7095C96.4455 27.906 95.9175 28.68 95.1255 29.28C94.3335 29.868 93.3495 30.162 92.1735 30.162C91.2375 30.162 90.3975 29.952 89.6535 29.532C88.9215 29.112 88.3455 28.518 87.9255 27.75C87.5055 26.97 87.2955 26.07 87.2955 25.05C87.2955 24.03 87.4995 23.136 87.9075 22.368C88.3155 21.6 88.8855 21.012 89.6175 20.604C90.3615 20.184 91.2135 19.974 92.1735 19.974C93.1095 19.974 93.9375 20.178 94.6575 20.586C95.3775 20.994 95.9295 21.558 96.3135 22.278C96.7095 22.986 96.9075 23.79 96.9075 24.69ZM95.2155 24.348C95.2155 23.724 95.0775 23.19 94.8015 22.746C94.5255 22.29 94.1475 21.948 93.6675 21.72C93.1995 21.48 92.6775 21.36 92.1015 21.36C91.2735 21.36 90.5655 21.624 89.9775 22.152C89.4015 22.68 89.0715 23.412 88.9875 24.348H95.2155Z" fill="#EEEEEE"/>
</svg>
