<svg width="143" height="47" viewBox="0 0 143 47" fill="none" xmlns="http://www.w3.org/2000/svg">
<path d="M30 31V29C30 27.9391 29.5786 26.9217 28.8284 26.1716C28.0783 25.4214 27.0609 25 26 25H18C16.9391 25 15.9217 25.4214 15.1716 26.1716C14.4214 26.9217 14 27.9391 14 29V31" stroke="#EEEEEE" stroke-width="2" stroke-linecap="round" stroke-linejoin="round"/>
<path d="M22 21C24.2091 21 26 19.2091 26 17C26 14.7909 24.2091 13 22 13C19.7909 13 18 14.7909 18 17C18 19.2091 19.7909 21 22 21Z" stroke="#EEEEEE" stroke-width="2" stroke-linecap="round" stroke-linejoin="round"/>
<path d="M52.802 27.21H47.33L46.322 30H44.594L49.13 17.526H51.02L55.538 30H53.81L52.802 27.21ZM52.334 25.878L50.066 19.542L47.798 25.878H52.334ZM59.1529 21.972C59.4889 21.384 59.9809 20.904 60.6289 20.532C61.2769 20.16 62.0149 19.974 62.8429 19.974C63.7309 19.974 64.5289 20.184 65.2369 20.604C65.9449 21.024 66.5029 21.618 66.9109 22.386C67.3189 23.142 67.5229 24.024 67.5229 25.032C67.5229 26.028 67.3189 26.916 66.9109 27.696C66.5029 28.476 65.9389 29.082 65.2189 29.514C64.5109 29.946 63.7189 30.162 62.8429 30.162C61.9909 30.162 61.2409 29.976 60.5929 29.604C59.9569 29.232 59.4769 28.758 59.1529 28.182V30H57.5149V16.68H59.1529V21.972ZM65.8489 25.032C65.8489 24.288 65.6989 23.64 65.3989 23.088C65.0989 22.536 64.6909 22.116 64.1749 21.828C63.6709 21.54 63.1129 21.396 62.5009 21.396C61.9009 21.396 61.3429 21.546 60.8269 21.846C60.3229 22.134 59.9149 22.56 59.6029 23.124C59.3029 23.676 59.1529 24.318 59.1529 25.05C59.1529 25.794 59.3029 26.448 59.6029 27.012C59.9149 27.564 60.3229 27.99 60.8269 28.29C61.3429 28.578 61.9009 28.722 62.5009 28.722C63.1129 28.722 63.6709 28.578 64.1749 28.29C64.6909 27.99 65.0989 27.564 65.3989 27.012C65.6989 26.448 65.8489 25.788 65.8489 25.032ZM73.981 30.162C73.057 30.162 72.217 29.952 71.461 29.532C70.717 29.112 70.129 28.518 69.697 27.75C69.277 26.97 69.067 26.07 69.067 25.05C69.067 24.042 69.283 23.154 69.715 22.386C70.159 21.606 70.759 21.012 71.515 20.604C72.271 20.184 73.117 19.974 74.053 19.974C74.989 19.974 75.835 20.184 76.591 20.604C77.347 21.012 77.941 21.6 78.373 22.368C78.817 23.136 79.039 24.03 79.039 25.05C79.039 26.07 78.811 26.97 78.355 27.75C77.911 28.518 77.305 29.112 76.537 29.532C75.769 29.952 74.917 30.162 73.981 30.162ZM73.981 28.722C74.569 28.722 75.121 28.584 75.637 28.308C76.153 28.032 76.567 27.618 76.879 27.066C77.203 26.514 77.365 25.842 77.365 25.05C77.365 24.258 77.209 23.586 76.897 23.034C76.585 22.482 76.177 22.074 75.673 21.81C75.169 21.534 74.623 21.396 74.035 21.396C73.435 21.396 72.883 21.534 72.379 21.81C71.887 22.074 71.491 22.482 71.191 23.034C70.891 23.586 70.741 24.258 70.741 25.05C70.741 25.854 70.885 26.532 71.173 27.084C71.473 27.636 71.869 28.05 72.361 28.326C72.853 28.59 73.393 28.722 73.981 28.722ZM89.9406 20.136V30H88.3026V28.542C87.9906 29.046 87.5526 29.442 86.9886 29.73C86.4366 30.006 85.8246 30.144 85.1526 30.144C84.3846 30.144 83.6946 29.988 83.0826 29.676C82.4706 29.352 81.9846 28.872 81.6246 28.236C81.2766 27.6 81.1026 26.826 81.1026 25.914V20.136H82.7226V25.698C82.7226 26.67 82.9686 27.42 83.4606 27.948C83.9526 28.464 84.6246 28.722 85.4766 28.722C86.3526 28.722 87.0426 28.452 87.5466 27.912C88.0506 27.372 88.3026 26.586 88.3026 25.554V20.136H89.9406ZM94.7043 21.486V27.3C94.7043 27.78 94.8063 28.122 95.0103 28.326C95.2143 28.518 95.5683 28.614 96.0723 28.614H97.2783V30H95.8023C94.8903 30 94.2063 29.79 93.7503 29.37C93.2943 28.95 93.0663 28.26 93.0663 27.3V21.486H91.7883V20.136H93.0663V17.652H94.7043V20.136H97.2783V21.486H94.7043ZM115.924 19.956C116.692 19.956 117.376 20.118 117.976 20.442C118.576 20.754 119.05 21.228 119.398 21.864C119.746 22.5 119.92 23.274 119.92 24.186V30H118.3V24.42C118.3 23.436 118.054 22.686 117.562 22.17C117.082 21.642 116.428 21.378 115.6 21.378C114.748 21.378 114.07 21.654 113.566 22.206C113.062 22.746 112.81 23.532 112.81 24.564V30H111.19V24.42C111.19 23.436 110.944 22.686 110.452 22.17C109.972 21.642 109.318 21.378 108.49 21.378C107.638 21.378 106.96 21.654 106.456 22.206C105.952 22.746 105.7 23.532 105.7 24.564V30H104.062V20.136H105.7V21.558C106.024 21.042 106.456 20.646 106.996 20.37C107.548 20.094 108.154 19.956 108.814 19.956C109.642 19.956 110.374 20.142 111.01 20.514C111.646 20.886 112.12 21.432 112.432 22.152C112.708 21.456 113.164 20.916 113.8 20.532C114.436 20.148 115.144 19.956 115.924 19.956ZM131.607 24.69C131.607 25.002 131.589 25.332 131.553 25.68H123.669C123.729 26.652 124.059 27.414 124.659 27.966C125.271 28.506 126.009 28.776 126.873 28.776C127.581 28.776 128.169 28.614 128.637 28.29C129.117 27.954 129.453 27.51 129.645 26.958H131.409C131.145 27.906 130.617 28.68 129.825 29.28C129.033 29.868 128.049 30.162 126.873 30.162C125.937 30.162 125.097 29.952 124.353 29.532C123.621 29.112 123.045 28.518 122.625 27.75C122.205 26.97 121.995 26.07 121.995 25.05C121.995 24.03 122.199 23.136 122.607 22.368C123.015 21.6 123.585 21.012 124.317 20.604C125.061 20.184 125.913 19.974 126.873 19.974C127.809 19.974 128.637 20.178 129.357 20.586C130.077 20.994 130.629 21.558 131.013 22.278C131.409 22.986 131.607 23.79 131.607 24.69ZM129.915 24.348C129.915 23.724 129.777 23.19 129.501 22.746C129.225 22.29 128.847 21.948 128.367 21.72C127.899 21.48 127.377 21.36 126.801 21.36C125.973 21.36 125.265 21.624 124.677 22.152C124.101 22.68 123.771 23.412 123.687 24.348H129.915Z" fill="#EEEEEE"/>
</svg>
