<svg width="237" height="321" viewBox="0 0 237 321" fill="none" xmlns="http://www.w3.org/2000/svg">
<rect x="109.982" y="234.535" width="41.4077" height="85.4655" rx="3.51536" fill="#00ADB5" stroke="black" stroke-width="1.64486" stroke-linejoin="round"/>
<rect x="1.65967" y="259.214" width="41.4077" height="60.7865" rx="3.51536" fill="#EEEEEE" stroke="black" stroke-width="1.64486" stroke-linejoin="round"/>
<rect x="193.791" y="139.794" width="41.4077" height="180.206" rx="3.51536" fill="#00ADB5" stroke="black" stroke-width="1.64486" stroke-linejoin="round"/>
<path d="M56.5719 117.856L99.1456 117.856C99.1456 117.856 92.3605 179.864 83.126 190.03C73.8915 200.196 25.5615 228.077 25.5615 228.077L9.28519 218.087L39.6275 170.302C39.6275 170.302 36.2907 151.667 56.5719 117.856Z" fill="#00ADB5" stroke="black" stroke-width="1.39887"/>
<path d="M26.2497 227.518L9.28521 218.09L0.699391 227.334C0.699391 227.334 15.1732 235.724 25.2712 239.012L20.9944 233.37L26.2497 227.518Z" fill="#EEEEEE" stroke="black" stroke-width="1.39887" stroke-linejoin="round"/>
<path d="M56.7535 116.953L103.271 116.891C103.271 116.891 129.13 139.631 132.387 152.973C135.645 166.315 131.93 214.735 131.93 214.735L113.129 223.047L93.7197 171.905C93.7197 171.905 73.4263 152.681 56.7535 116.953Z" fill="#00ADB5"/>
<path d="M56.7535 116.953L56.7525 116.253C56.5137 116.253 56.2915 116.376 56.1633 116.577C56.0351 116.779 56.0186 117.032 56.1196 117.248L56.7535 116.953ZM103.271 116.891L103.733 116.366L103.534 116.192L103.27 116.192L103.271 116.891ZM131.93 214.735L132.213 215.375L132.595 215.206L132.627 214.789L131.93 214.735ZM113.129 223.047L112.475 223.296L112.737 223.986L113.412 223.687L113.129 223.047ZM93.7197 171.905L94.3736 171.657L94.3168 171.507L94.2007 171.397L93.7197 171.905ZM56.7544 117.652L103.272 117.591L103.27 116.192L56.7525 116.253L56.7544 117.652ZM131.647 214.095L112.846 222.408L113.412 223.687L132.213 215.375L131.647 214.095ZM113.783 222.799L94.3736 171.657L93.0657 172.153L112.475 223.296L113.783 222.799ZM93.7197 171.905C94.2007 171.397 94.2007 171.397 94.2007 171.397C94.2006 171.397 94.2005 171.397 94.2002 171.397C94.1998 171.396 94.1991 171.396 94.198 171.395C94.1959 171.393 94.1925 171.389 94.188 171.385C94.1788 171.376 94.1648 171.363 94.1461 171.345C94.1086 171.309 94.052 171.254 93.977 171.181C93.8271 171.034 93.6038 170.813 93.313 170.518C92.7313 169.928 91.8794 169.044 90.804 167.87C88.6531 165.523 85.6082 162.019 82.0425 157.4C74.9109 148.161 65.6983 134.467 57.3873 116.657L56.1196 117.248C64.4815 135.167 73.752 148.949 80.9352 158.254C84.527 162.907 87.5975 166.442 89.7726 168.815C90.8602 170.002 91.724 170.899 92.3172 171.5C92.6138 171.801 92.8428 172.028 92.9983 172.18C93.0761 172.256 93.1355 172.314 93.1758 172.353C93.1959 172.372 93.2113 172.387 93.2218 172.397C93.2271 172.402 93.2311 172.406 93.2339 172.408C93.2353 172.41 93.2364 172.411 93.2372 172.411C93.2376 172.412 93.238 172.412 93.2382 172.412C93.2384 172.412 93.2386 172.413 93.7197 171.905ZM103.271 116.891C102.809 117.417 102.809 117.417 102.809 117.417C102.809 117.417 102.809 117.417 102.81 117.417C102.81 117.418 102.812 117.419 102.813 117.42C102.816 117.423 102.821 117.427 102.827 117.432C102.839 117.443 102.857 117.459 102.881 117.481C102.929 117.523 103.002 117.587 103.096 117.672C103.285 117.84 103.563 118.09 103.918 118.412C104.628 119.057 105.648 119.995 106.881 121.161C109.35 123.495 112.673 126.744 116.096 130.407C119.521 134.071 123.037 138.14 125.896 142.115C128.765 146.105 130.926 149.938 131.708 153.139L133.067 152.807C132.22 149.337 129.927 145.325 127.031 141.298C124.125 137.257 120.565 133.139 117.118 129.451C113.67 125.762 110.325 122.492 107.843 120.145C106.601 118.971 105.575 118.027 104.858 117.377C104.5 117.051 104.219 116.799 104.028 116.628C103.932 116.543 103.858 116.477 103.809 116.433C103.784 116.411 103.765 116.395 103.752 116.383C103.746 116.378 103.741 116.374 103.738 116.371C103.736 116.369 103.735 116.368 103.734 116.367C103.734 116.367 103.733 116.367 103.733 116.366C103.733 116.366 103.733 116.366 103.271 116.891ZM131.708 153.139C132.502 156.39 132.881 161.846 132.991 168.264C133.101 174.662 132.942 181.951 132.682 188.831C132.421 195.71 132.059 202.173 131.762 206.917C131.613 209.289 131.481 211.231 131.386 212.579C131.338 213.253 131.3 213.779 131.273 214.137C131.26 214.315 131.25 214.452 131.243 214.543C131.24 214.589 131.237 214.624 131.235 214.647C131.234 214.658 131.234 214.667 131.233 214.673C131.233 214.676 131.233 214.678 131.233 214.679C131.233 214.68 131.233 214.681 131.233 214.681C131.233 214.681 131.233 214.682 131.93 214.735C132.627 214.789 132.627 214.788 132.628 214.788C132.628 214.788 132.628 214.787 132.628 214.786C132.628 214.785 132.628 214.782 132.628 214.78C132.629 214.774 132.629 214.765 132.63 214.753C132.632 214.729 132.635 214.694 132.638 214.648C132.645 214.556 132.655 214.419 132.669 214.24C132.695 213.881 132.733 213.354 132.781 212.678C132.876 211.326 133.009 209.381 133.158 207.005C133.455 202.253 133.818 195.778 134.079 188.884C134.34 181.991 134.5 174.674 134.39 168.24C134.28 161.827 133.902 156.227 133.067 152.807L131.708 153.139Z" fill="black"/>
<path fill-rule="evenodd" clip-rule="evenodd" d="M97.5529 41.0892C98.611 40.7032 99.6186 40.139 100.538 39.3557C107.479 33.4426 104.503 24.5215 100.302 19.8769C96.1018 15.2324 70.4063 17.085 82.5278 38.6013C82.5788 38.632 82.6309 38.663 82.6839 38.6941C84.039 43.0064 82.8962 46.7051 81.5249 51.143C80.9656 52.953 80.3683 54.886 79.8869 57.0338L92.7428 56.1126C96.2763 51.3145 97.616 46.4779 97.5529 41.0892Z" fill="#F5B9AB"/>
<path d="M100.538 39.3557L100.005 38.7297L100.005 38.7297L100.538 39.3557ZM97.5529 41.0892L97.2711 40.3165C96.9431 40.4362 96.7264 40.7498 96.7305 41.0988L97.5529 41.0892ZM100.302 19.8769L100.912 19.3253L100.912 19.3253L100.302 19.8769ZM82.5278 38.6013L81.8112 39.0049C81.881 39.1288 81.9817 39.2324 82.1034 39.3058L82.5278 38.6013ZM82.6839 38.6941L83.4685 38.4476C83.4074 38.2531 83.2762 38.0883 83.1005 37.985L82.6839 38.6941ZM81.5249 51.143L80.7391 50.9001L80.7391 50.9002L81.5249 51.143ZM79.8869 57.0338L79.0844 56.854C79.0276 57.1077 79.0941 57.3734 79.2637 57.5705C79.4334 57.7675 79.6863 57.8727 79.9457 57.8541L79.8869 57.0338ZM92.7428 56.1126L92.8016 56.933C93.0417 56.9158 93.2623 56.7942 93.405 56.6003L92.7428 56.1126ZM100.005 38.7297C99.1644 39.4456 98.2432 39.9619 97.2711 40.3165L97.8348 41.8618C98.9789 41.4444 100.073 40.8324 101.071 39.9817L100.005 38.7297ZM99.6922 20.4286C101.697 22.645 103.402 25.8811 103.781 29.233C104.156 32.5471 103.241 35.9727 100.005 38.7297L101.071 39.9817C104.776 36.8257 105.843 32.8342 105.415 29.0482C104.991 25.3001 103.108 21.7534 100.912 19.3253L99.6922 20.4286ZM83.2443 38.1976C80.2693 32.9168 79.6983 28.9879 80.3992 26.1419C81.0946 23.3181 83.0868 21.3836 85.6462 20.1721C88.2172 18.9551 91.3039 18.501 94.0064 18.6388C95.3543 18.7075 96.5816 18.9223 97.5808 19.2475C98.5951 19.5777 99.3031 19.9983 99.6922 20.4286L100.912 19.3253C100.251 18.5944 99.2373 18.0569 98.0898 17.6834C96.9271 17.305 95.5526 17.0706 94.0902 16.9961C91.1723 16.8473 87.8052 17.3303 84.9424 18.6854C82.068 20.046 79.6467 22.3187 78.802 25.7486C77.9629 29.1563 78.7255 33.5276 81.8112 39.0049L83.2443 38.1976ZM83.1005 37.985C83.0501 37.9554 83.0006 37.926 82.9521 37.8968L82.1034 39.3058C82.1571 39.3381 82.2117 39.3706 82.2673 39.4032L83.1005 37.985ZM82.3106 51.3858C83.6713 46.9823 84.9117 43.0399 83.4685 38.4476L81.8993 38.9407C83.1664 42.9729 82.121 46.4278 80.7391 50.9001L82.3106 51.3858ZM80.6895 57.2137C81.1627 55.1021 81.7505 53.1985 82.3106 51.3858L80.7391 50.9002C80.1806 52.7075 79.5738 54.67 79.0844 56.854L80.6895 57.2137ZM92.684 55.2923L79.8282 56.2135L79.9457 57.8541L92.8016 56.933L92.684 55.2923ZM96.7305 41.0988C96.7917 46.322 95.5005 50.981 92.0806 55.625L93.405 56.6003C97.0522 51.6479 98.4403 46.6338 98.3753 41.0795L96.7305 41.0988Z" fill="black"/>
<path d="M80.2215 25.6083C78.2098 28.4071 80.3766 35.3196 81.9753 37.0486C68.7283 29.6983 77.1148 13.1142 81.2021 16.1384C81.8682 10.0071 88.9037 7.84377 93.6997 13.0293C105.724 3.31877 106.357 19.8652 102.113 22.3815C97.8684 24.8978 92.7192 22.5015 90.0469 23.7991C87.3746 25.0967 85.7256 32.9567 84.8599 28.5942C83.9943 24.2318 82.7361 22.1097 80.2215 25.6083Z" fill="#00ADB5" stroke="black" stroke-width="1.64486"/>
<path d="M104.824 117.945C118.689 108.723 112.903 76.8563 110.93 67.7961C110.575 66.166 110.05 64.6023 109.412 63.0607C104.171 50.3909 91.2407 40.186 78.857 46.0714C52.4792 58.6075 56.4007 98.5955 56.6497 118.244L104.824 117.945Z" fill="#EEEEEE" stroke="black" stroke-width="1.64486" stroke-linejoin="round"/>
<path d="M146.53 74.8251L135.401 61.2442L97.9032 87.479L85.7837 63.0841L70.0906 87.4787C70.0906 87.4787 87.0916 113.883 95.7278 113.116C111.466 111.718 146.53 74.8251 146.53 74.8251Z" fill="#EEEEEE"/>
<path d="M86.6138 64.8642L97.7972 86.73L135.4 61.2446L146.529 74.8255C146.529 74.8255 113.475 111.49 94.1595 113.206C88.0802 113.746 70.3688 87.2146 70.3688 87.2146" stroke="black" stroke-width="1.64486"/>
<path d="M139.1 58.7935L134.693 61.6225L145.757 75.6412L149.237 72.8218C152.94 69.8223 153.527 64.3962 150.551 60.6747C147.779 57.2082 142.836 56.3962 139.1 58.7935Z" fill="#F5B9AB" stroke="black" stroke-width="1.64486" stroke-linejoin="round"/>
<path d="M132.158 212.971L113.13 222.892L116.403 235.289L141.811 219.642L134.334 220.658L132.158 212.971Z" fill="#EEEEEE" stroke="black" stroke-width="1.39887" stroke-linejoin="round"/>
</svg>
