<svg width="128" height="47" viewBox="0 0 128 47" fill="none" xmlns="http://www.w3.org/2000/svg">
<path d="M32.0001 26.9201V29.9201C32.0012 30.1986 31.9441 30.4743 31.8326 30.7294C31.721 30.9846 31.5574 31.2137 31.3521 31.402C31.1469 31.5902 30.9046 31.7336 30.6408 31.8228C30.377 31.912 30.0974 31.9452 29.8201 31.9201C26.7429 31.5857 23.7871 30.5342 21.1901 28.8501C18.7739 27.3148 16.7254 25.2663 15.1901 22.8501C13.5 20.2413 12.4483 17.2711 12.1201 14.1801C12.0951 13.9036 12.1279 13.6249 12.2166 13.3617C12.3052 13.0986 12.4476 12.8568 12.6348 12.6517C12.822 12.4466 13.0499 12.2828 13.3038 12.1706C13.5578 12.0584 13.8324 12.0004 14.1101 12.0001H17.1101C17.5954 11.9953 18.0658 12.1672 18.4338 12.4836C18.8018 12.8001 19.0421 13.2395 19.1101 13.7201C19.2367 14.6802 19.4715 15.6228 19.8101 16.5301C19.9446 16.888 19.9737 17.277 19.894 17.651C19.8142 18.0249 19.6289 18.3682 19.3601 18.6401L18.0901 19.9101C19.5136 22.4136 21.5865 24.4865 24.0901 25.9101L25.3601 24.6401C25.6319 24.3712 25.9752 24.1859 26.3492 24.1062C26.7231 24.0264 27.1121 24.0556 27.4701 24.1901C28.3773 24.5286 29.32 24.7635 30.2801 24.8901C30.7658 24.9586 31.2095 25.2033 31.5266 25.5776C31.8437 25.9519 32.0122 26.4297 32.0001 26.9201Z" stroke="#EEEEEE" stroke-width="2" stroke-linecap="round" stroke-linejoin="round"/>
<path d="M44.774 23.718C44.774 22.494 45.05 21.396 45.602 20.424C46.154 19.44 46.904 18.672 47.852 18.12C48.812 17.568 49.874 17.292 51.038 17.292C52.406 17.292 53.6 17.622 54.62 18.282C55.64 18.942 56.384 19.878 56.852 21.09H54.89C54.542 20.334 54.038 19.752 53.378 19.344C52.73 18.936 51.95 18.732 51.038 18.732C50.162 18.732 49.376 18.936 48.68 19.344C47.984 19.752 47.438 20.334 47.042 21.09C46.646 21.834 46.448 22.71 46.448 23.718C46.448 24.714 46.646 25.59 47.042 26.346C47.438 27.09 47.984 27.666 48.68 28.074C49.376 28.482 50.162 28.686 51.038 28.686C51.95 28.686 52.73 28.488 53.378 28.092C54.038 27.684 54.542 27.102 54.89 26.346H56.852C56.384 27.546 55.64 28.476 54.62 29.136C53.6 29.784 52.406 30.108 51.038 30.108C49.874 30.108 48.812 29.838 47.852 29.298C46.904 28.746 46.154 27.984 45.602 27.012C45.05 26.04 44.774 24.942 44.774 23.718ZM63.5923 30.162C62.6683 30.162 61.8283 29.952 61.0723 29.532C60.3283 29.112 59.7403 28.518 59.3083 27.75C58.8883 26.97 58.6783 26.07 58.6783 25.05C58.6783 24.042 58.8943 23.154 59.3263 22.386C59.7703 21.606 60.3703 21.012 61.1263 20.604C61.8823 20.184 62.7283 19.974 63.6643 19.974C64.6003 19.974 65.4463 20.184 66.2023 20.604C66.9583 21.012 67.5523 21.6 67.9843 22.368C68.4283 23.136 68.6503 24.03 68.6503 25.05C68.6503 26.07 68.4223 26.97 67.9663 27.75C67.5223 28.518 66.9163 29.112 66.1483 29.532C65.3803 29.952 64.5283 30.162 63.5923 30.162ZM63.5923 28.722C64.1803 28.722 64.7323 28.584 65.2483 28.308C65.7643 28.032 66.1783 27.618 66.4903 27.066C66.8143 26.514 66.9763 25.842 66.9763 25.05C66.9763 24.258 66.8203 23.586 66.5083 23.034C66.1963 22.482 65.7883 22.074 65.2843 21.81C64.7803 21.534 64.2343 21.396 63.6463 21.396C63.0463 21.396 62.4943 21.534 61.9903 21.81C61.4983 22.074 61.1023 22.482 60.8023 23.034C60.5023 23.586 60.3523 24.258 60.3523 25.05C60.3523 25.854 60.4963 26.532 60.7843 27.084C61.0843 27.636 61.4803 28.05 61.9723 28.326C62.4643 28.59 63.0043 28.722 63.5923 28.722ZM75.61 19.956C76.81 19.956 77.782 20.322 78.526 21.054C79.27 21.774 79.642 22.818 79.642 24.186V30H78.022V24.42C78.022 23.436 77.776 22.686 77.284 22.17C76.792 21.642 76.12 21.378 75.268 21.378C74.404 21.378 73.714 21.648 73.198 22.188C72.694 22.728 72.442 23.514 72.442 24.546V30H70.804V20.136H72.442V21.54C72.766 21.036 73.204 20.646 73.756 20.37C74.32 20.094 74.938 19.956 75.61 19.956ZM84.3156 21.486V27.3C84.3156 27.78 84.4176 28.122 84.6216 28.326C84.8256 28.518 85.1796 28.614 85.6836 28.614H86.8896V30H85.4136C84.5016 30 83.8176 29.79 83.3616 29.37C82.9056 28.95 82.6776 28.26 82.6776 27.3V21.486H81.3996V20.136H82.6776V17.652H84.3156V20.136H86.8896V21.486H84.3156ZM88.2623 25.032C88.2623 24.024 88.4663 23.142 88.8743 22.386C89.2823 21.618 89.8403 21.024 90.5483 20.604C91.2683 20.184 92.0663 19.974 92.9423 19.974C93.8063 19.974 94.5563 20.16 95.1923 20.532C95.8283 20.904 96.3023 21.372 96.6143 21.936V20.136H98.2703V30H96.6143V28.164C96.2903 28.74 95.8043 29.22 95.1563 29.604C94.5203 29.976 93.7763 30.162 92.9243 30.162C92.0483 30.162 91.2563 29.946 90.5483 29.514C89.8403 29.082 89.2823 28.476 88.8743 27.696C88.4663 26.916 88.2623 26.028 88.2623 25.032ZM96.6143 25.05C96.6143 24.306 96.4643 23.658 96.1643 23.106C95.8643 22.554 95.4563 22.134 94.9403 21.846C94.4363 21.546 93.8783 21.396 93.2663 21.396C92.6543 21.396 92.0963 21.54 91.5923 21.828C91.0883 22.116 90.6863 22.536 90.3863 23.088C90.0863 23.64 89.9363 24.288 89.9363 25.032C89.9363 25.788 90.0863 26.448 90.3863 27.012C90.6863 27.564 91.0883 27.99 91.5923 28.29C92.0963 28.578 92.6543 28.722 93.2663 28.722C93.8783 28.722 94.4363 28.578 94.9403 28.29C95.4563 27.99 95.8643 27.564 96.1643 27.012C96.4643 26.448 96.6143 25.794 96.6143 25.05ZM100.426 25.05C100.426 24.03 100.63 23.142 101.038 22.386C101.446 21.618 102.01 21.024 102.73 20.604C103.462 20.184 104.296 19.974 105.232 19.974C106.444 19.974 107.44 20.268 108.22 20.856C109.012 21.444 109.534 22.26 109.786 23.304H108.022C107.854 22.704 107.524 22.23 107.032 21.882C106.552 21.534 105.952 21.36 105.232 21.36C104.296 21.36 103.54 21.684 102.964 22.332C102.388 22.968 102.1 23.874 102.1 25.05C102.1 26.238 102.388 27.156 102.964 27.804C103.54 28.452 104.296 28.776 105.232 28.776C105.952 28.776 106.552 28.608 107.032 28.272C107.512 27.936 107.842 27.456 108.022 26.832H109.786C109.522 27.84 108.994 28.65 108.202 29.262C107.41 29.862 106.42 30.162 105.232 30.162C104.296 30.162 103.462 29.952 102.73 29.532C102.01 29.112 101.446 28.518 101.038 27.75C100.63 26.982 100.426 26.082 100.426 25.05ZM113.97 21.486V27.3C113.97 27.78 114.072 28.122 114.276 28.326C114.48 28.518 114.834 28.614 115.338 28.614H116.544V30H115.068C114.156 30 113.472 29.79 113.016 29.37C112.56 28.95 112.332 28.26 112.332 27.3V21.486H111.054V20.136H112.332V17.652H113.97V20.136H116.544V21.486H113.97Z" fill="#EEEEEE"/>
</svg>
