<svg width="290" height="342" viewBox="0 0 290 342" fill="none" xmlns="http://www.w3.org/2000/svg">
<path fill-rule="evenodd" clip-rule="evenodd" d="M209.847 68.6102C208.08 67.9657 206.398 67.0237 204.863 65.7158C193.273 55.8422 198.243 40.9458 205.257 33.1904C212.27 25.4351 255.176 28.5285 234.936 64.456C234.851 64.5074 234.764 64.5591 234.675 64.6111C232.412 71.8117 234.321 77.9877 236.61 85.3981C237.544 88.4205 238.542 91.6482 239.345 95.2346L217.879 93.6964C211.979 85.6845 209.742 77.6083 209.847 68.6102Z" fill="#F5B9AB"/>
<path d="M204.863 65.7158L204.409 66.2482V66.2482L204.863 65.7158ZM209.847 68.6102L210.087 67.9532C210.366 68.0549 210.55 68.3216 210.546 68.6184L209.847 68.6102ZM205.257 33.1904L204.738 32.7213L205.257 33.1904ZM234.936 64.456L235.545 64.7993C235.486 64.9047 235.4 64.9928 235.297 65.0552L234.936 64.456ZM234.675 64.6111L234.008 64.4014C234.06 64.2361 234.171 64.0959 234.321 64.0081L234.675 64.6111ZM236.61 85.3981L235.942 85.6046L235.942 85.6046L236.61 85.3981ZM239.345 95.2346L240.028 95.0816C240.076 95.2974 240.02 95.5234 239.875 95.691C239.731 95.8586 239.516 95.948 239.295 95.9322L239.345 95.2346ZM217.879 93.6964L217.829 94.3941C217.625 94.3794 217.437 94.276 217.316 94.1112L217.879 93.6964ZM205.316 65.1833C206.784 66.434 208.393 67.3353 210.087 67.9532L209.607 69.2673C207.767 68.5961 206.012 67.6134 204.409 66.2482L205.316 65.1833ZM205.775 33.6596C202.35 37.4473 199.43 42.9781 198.779 48.7374C198.131 54.4644 199.721 60.4163 205.316 65.1833L204.409 66.2482C198.415 61.1417 196.695 54.7086 197.389 48.5802C198.078 42.484 201.15 36.689 204.738 32.7213L205.775 33.6596ZM234.327 64.1127C239.34 55.2144 240.371 48.4728 239.144 43.4905C237.922 38.5271 234.42 35.1584 230.017 33.0743C225.605 30.9856 220.336 30.2156 215.735 30.4501C213.437 30.5672 211.328 30.9339 209.592 31.4988C207.844 32.0678 206.536 32.818 205.775 33.6596L204.738 32.7213C205.73 31.624 207.298 30.7744 209.159 30.1686C211.034 29.5585 213.269 29.1752 215.664 29.0531C220.448 28.8092 225.955 29.6038 230.616 31.81C235.286 34.0208 239.154 37.6772 240.503 43.156C241.847 48.616 240.652 55.7339 235.545 64.7993L234.327 64.1127ZM234.321 64.0081C234.407 63.9573 234.492 63.9069 234.575 63.8569L235.297 65.0552C235.209 65.1079 235.12 65.1609 235.029 65.2142L234.321 64.0081ZM235.942 85.6046C233.661 78.2235 231.67 71.8402 234.008 64.4014L235.342 64.8208C233.154 71.7832 234.98 77.7519 237.279 85.1916L235.942 85.6046ZM238.663 95.3875C237.866 91.832 236.877 88.6293 235.942 85.6046L237.279 85.1916C238.212 88.2117 239.217 91.4645 240.028 95.0816L238.663 95.3875ZM217.929 92.9988L239.395 94.5369L239.295 95.9322L217.829 94.3941L217.929 92.9988ZM210.546 68.6184C210.443 77.4757 212.638 85.4009 218.442 93.2817L217.316 94.1112C211.319 85.968 209.041 77.7409 209.148 68.602L210.546 68.6184Z" fill="black"/>
<path d="M238.787 42.76C242.146 47.4334 238.528 58.9759 235.858 61.8629C257.978 49.5895 243.974 21.8977 237.149 26.9474C236.037 16.7094 224.29 13.0972 216.281 21.7559C196.203 5.54145 195.147 33.1703 202.234 37.372C209.32 41.5737 217.918 37.5724 222.381 39.7391C226.843 41.9058 229.596 55.0303 231.042 47.746C232.487 40.4617 234.588 36.9183 238.787 42.76Z" fill="#00ADB5" stroke="black" stroke-width="1.39887"/>
<path d="M258.639 246.627L227.503 244.367L234.997 160.558C234.997 160.558 198.871 74.9527 229.882 74.9523C273.698 74.9524 288.35 142.46 287.804 160.558C287.258 178.656 258.639 246.627 258.639 246.627Z" fill="#EEEEEE" stroke="black" stroke-width="1.39887"/>
<path d="M227.268 247.992L227.703 244.208L259.058 245.468L258.367 251.549C257.249 261.382 247.401 267.722 237.988 264.669C230.901 262.371 226.416 255.394 227.268 247.992Z" fill="#F5B9AB" stroke="black" stroke-width="1.39887" stroke-linejoin="round"/>
<path d="M182.073 186.315C161.82 166.678 186.99 101.631 191.094 93.89C197.071 82.8586 215.01 63.6678 238.952 75.1563C275.157 92.5292 258.613 178.489 252.105 208.285L182.073 186.315Z" fill="#EEEEEE" stroke="black" stroke-width="1.39887"/>
<path d="M24.3596 254.487L21.0958 224.984C21.0958 224.984 96.8724 200.426 159.324 191.211L245.074 198.618C257.954 229.056 251.602 284.995 156.069 259.278L24.3596 254.487Z" fill="#00ADB5" stroke="black" stroke-width="1.39887"/>
<path fill-rule="evenodd" clip-rule="evenodd" d="M116.182 202.797L102.718 244.671L74.4701 243.291L63.1408 174.627C60.1885 156.735 73.9925 140.466 92.1272 140.466L95.9176 140.466C97.2587 140.466 98.5735 140.554 99.8578 140.724L101.23 138.579L224.543 178.246C249.925 186.411 261.342 215.88 248.085 239.014L243.982 246.173C230.948 268.917 200.477 274.26 180.483 257.309L116.182 202.797Z" fill="#00ADB5"/>
<path d="M116.182 202.797L116.634 202.263L115.837 201.587L115.516 202.583L116.182 202.797ZM102.718 244.671L102.684 245.369L103.22 245.396L103.384 244.885L102.718 244.671ZM74.4701 243.291L73.78 243.405L73.8719 243.962L74.4359 243.989L74.4701 243.291ZM63.1408 174.627L63.8309 174.513V174.513L63.1408 174.627ZM92.1272 140.466V139.767V139.767V140.466ZM95.9176 140.466V141.166V141.166V140.466ZM99.8578 140.724L99.7661 141.418L100.207 141.476L100.447 141.101L99.8578 140.724ZM101.23 138.579L101.444 137.913L100.931 137.748L100.641 138.202L101.23 138.579ZM224.543 178.246L224.329 178.912V178.912L224.543 178.246ZM248.085 239.014L247.478 238.666V238.666L248.085 239.014ZM243.982 246.173L243.375 245.826L243.375 245.826L243.982 246.173ZM180.483 257.309L180.03 257.843V257.843L180.483 257.309ZM115.516 202.583L102.053 244.457L103.384 244.885L116.848 203.011L115.516 202.583ZM102.753 243.972L74.5042 242.592L74.4359 243.989L102.684 245.369L102.753 243.972ZM75.1602 243.177L63.8309 174.513L62.4507 174.741L73.78 243.405L75.1602 243.177ZM63.8309 174.513C60.9489 157.047 74.4242 141.166 92.1272 141.166V139.767C73.5607 139.767 59.4281 156.422 62.4507 174.741L63.8309 174.513ZM92.1272 141.166L95.9176 141.166V139.767L92.1272 139.767V141.166ZM95.9176 141.166C97.228 141.166 98.5123 141.252 99.7661 141.418L99.9495 140.031C98.6348 139.857 97.2893 139.767 95.9176 139.767V141.166ZM100.447 141.101L101.819 138.956L100.641 138.202L99.2686 140.347L100.447 141.101ZM101.016 139.245L224.329 178.912L224.757 177.58L101.444 137.913L101.016 139.245ZM224.329 178.912C249.288 186.94 260.514 215.918 247.478 238.666L248.691 239.362C262.17 215.842 250.563 185.881 224.757 177.58L224.329 178.912ZM247.478 238.666L243.375 245.826L244.589 246.521L248.691 239.362L247.478 238.666ZM243.375 245.826C230.559 268.189 200.596 273.444 180.935 256.776L180.03 257.843C200.358 275.077 231.338 269.644 244.589 246.521L243.375 245.826ZM180.935 256.776L116.634 202.263L115.73 203.33L180.03 257.843L180.935 256.776Z" fill="black"/>
<path d="M74.1452 242.972L103.031 244.68L105.27 268.93C105.27 268.93 79.9296 268.195 64.5574 263.387L74.8897 258.309L74.1452 242.972Z" fill="#EEEEEE" stroke="black" stroke-width="1.39887" stroke-linejoin="round"/>
<rect width="70.7162" height="13.2593" rx="2.00878" transform="matrix(0.258819 0.965926 0.965926 -0.258819 64.4098 66.2063)" fill="#EEEEEE" stroke="black" stroke-width="1.39887"/>
<rect width="70.7162" height="13.2593" rx="2.00878" transform="matrix(-1 0 0 1 150.62 127.598)" fill="#00ADB5" stroke="black" stroke-width="1.39887"/>
<path d="M21.3205 225.005L24.8933 254.502L3.33169 260.453C3.33169 260.453 -0.73066 235.038 1.23789 218.804L8.35872 228.16L21.3205 225.005Z" fill="#EEEEEE" stroke="black" stroke-width="1.39887" stroke-linejoin="round"/>
<path d="M128.395 148.715L144.576 121.754L194.187 148.768C191.913 117.591 213.312 72.7217 235.783 75.4548C275.205 80.2492 246.162 177.419 220.338 194.547C194.513 211.675 128.395 148.715 128.395 148.715Z" fill="#EEEEEE"/>
<path d="M251.48 135.09C245.379 160.655 232.501 186.48 220.338 194.547C194.513 211.675 128.395 148.715 128.395 148.715L144.576 121.754L194.187 148.768L211.05 106.465" stroke="black" stroke-width="1.39887"/>
<path d="M141.63 119.708L144.728 121.924L128.426 148.737L123.443 145.185C115.385 139.441 114.613 127.754 121.847 121C127.293 115.916 135.568 115.375 141.63 119.708Z" fill="#F5B9AB" stroke="black" stroke-width="1.39887" stroke-linejoin="round"/>
</svg>
