<svg width="91" height="184" viewBox="0 0 91 184" fill="none" xmlns="http://www.w3.org/2000/svg">
<path d="M2.00056 8.50752C15.1596 3.82271 30.7952 -4.22885 40.3707 10.1965C44.9207 17.0512 41.7132 30.0196 36.3655 35.346C31.9296 39.7641 28.01 46.8292 20.6015 45.4799C14.7823 44.42 10.2703 39.86 10.4052 33.6708C10.7883 16.0946 32.73 22.9035 39.1627 31.3202C47.943 42.8085 36.8864 80.1822 20.2377 80.377C5.96316 80.5441 10.4533 64.9212 21.7645 63.2852C37.676 60.9839 45.1121 67.0271 45.5169 84.8618C45.833 98.7873 31.7524 110.449 19.7487 112.528C17.2557 112.96 3.67275 119.395 3.51577 117.41C1.96674 97.8201 34.0472 99.2786 42.5783 110.624C52.3803 123.659 62.1494 136.96 61.7015 153.426C61.4606 162.281 53.2246 187.454 57.4218 179.653C62.6742 169.891 70.6617 157.183 81.1306 152.081C84.2457 150.563 94.0762 145.475 84.9139 150.748C75.4779 156.18 67.0397 160.744 59.2002 167.487C57.4556 168.988 57.5368 173.372 57.016 175.491C56.5749 177.285 52.9701 171.298 52.4277 170.709C47.7447 165.625 41.2806 163.453 34.6856 162.023C28.7992 160.747 20.639 160.899 18.9631 156.805" stroke="#00ADB5" stroke-opacity="0.2" stroke-width="4" stroke-linecap="round" stroke-linejoin="round"/>
</svg>
